#!OML:ASF E:\motion texture\Top Level 1\Subject 1\Session 1\male.ASF
:FULLY-SPECIFIED
:DEGREES
509
root -8.46212 17.9079 4.86393 93.3987 -84.0167 -88.1746
lowerback 3.98406 2.61494 -0.974428
upperback 3.22537 3.32578 -4.94028
thorax 1.33172 1.6375 -4.64419
lowerneck -9.26809 14.0483 1.18659
upperneck 34.4318 21.0411 -5.95923
head 14.1781 8.04319 0.448731
rclavicle -1.59028e-015 9.06458e-014
rhumerus -31.2088 -8.0962 -78.7926
rradius 30.6468
rwrist 13.974
rhand -8.4568 -19.7762
rfingers 7.12502
rthumb 17.4693 -49.0112
lclavicle -1.59028e-015 9.06458e-014
lhumerus -22.9495 4.97474 75.3005
lradius 45.7701
lwrist -21.233
lhand -15.5005 16.7667
lfingers 7.12502
lthumb 10.682 46.4752
rfemur -32.2449 -8.61628 21.5163
rtibia 33.9171
rfoot -6.06124 -16.6639
rtoes 3.77592
lfemur -10.7138 -8.72043 -8.90527
ltibia 23.7867
lfoot -16.13 -3.63698
ltoes -4.67174
510
root -8.5675 17.9071 4.85441 92.9454 -84.1262 -87.5974
lowerback 3.98806 2.55456 -1.01203
upperback 3.24683 3.24569 -4.89551
thorax 1.34061 1.59663 -4.57398
lowerneck -9.28708 14.03 1.13197
upperneck 34.3314 21.0338 -6.00724
head 14.1364 8.03674 0.43689
rclavicle -6.36111e-015 -2.06736e-014
rhumerus -31.2558 -8.01665 -78.78
rradius 30.6936
rwrist 13.9143
rhand -8.44163 -19.7738
rfingers 7.12502
rthumb 17.4839 -49.0075
lclavicle -6.36111e-015 -2.06736e-014
lhumerus -23.2373 4.88318 75.5024
lradius 45.8305
lwrist -21.4814
lhand -15.4221 16.6574
lfingers 7.12502
lthumb 10.7576 46.3619
rfemur -32.3949 -8.38278 21.2637
rtibia 32.3614
rfoot -6.23257 -16.6052
rtoes 3.47984
lfemur -10.2753 -8.72672 -9.04467
ltibia 23.454
lfoot -16.2824 -3.66443
ltoes -4.76346
511
root -8.6738 17.905 4.84384 92.3504 -84.2389 -86.8831
lowerback 3.99184 2.4952 -1.04636
upperback 3.26847 3.16714 -4.85022
thorax 1.35032 1.55661 -4.50513
lowerneck -9.3049 14.011 1.07773
upperneck 34.2322 21.0258 -6.05568
head 14.0952 8.03005 0.424727
rclavicle 1.35174e-014 -3.18055e-014
rhumerus -31.3027 -7.9533 -78.7523
rradius 30.7181
rwrist 13.8702
rhand -8.4313 -19.7776
rfingers 7.12502
rthumb 17.4938 -49.0104
lclavicle 1.35174e-014 -3.18055e-014
lhumerus -23.5199 4.83331 75.696
lradius 45.8276
lwrist -21.753
lhand -15.3677 16.5655
lfingers 7.12502
lthumb 10.8101 46.2673
rfemur -32.5219 -8.13658 20.9903
rtibia 30.8703
rfoot -6.38224 -16.5772
rtoes 3.20194
lfemur -9.84425 -8.73613 -9.18683
ltibia 23.1453
lfoot -16.4383 -3.6933
ltoes -4.87985
512
root -8.78109 17.9017 4.83215 91.6065 -84.354 -86.0247
lowerback 3.99553 2.43692 -1.07809
upperback 3.2901 3.09015 -4.80394
thorax 1.36049 1.51744 -4.43675
lowerneck -9.32188 13.9909 1.02343
upperneck 34.1341 21.0169 -6.10512
head 14.0545 8.02288 0.412065
rclavicle 4.37326e-014 2.22639e-014
rhumerus -31.3495 -7.90491 -78.7094
rradius 30.7199
rwrist 13.839
rhand -8.42546 -19.7872
rfingers 7.12502
rthumb 17.4994 -49.0195
lclavicle 4.37326e-014 2.22639e-014
lhumerus -23.7973 4.82684 75.8811
lradius 45.761
lwrist -22.0481
lhand -15.3393 16.493
lfingers 7.12502
lthumb 10.8375 46.1933
rfemur -32.6269 -7.8769 20.6972
rtibia 29.4508
rfoot -6.51256 -16.5818
rtoes 2.93756
lfemur -9.42086 -8.74922 -9.33061
ltibia 22.8624
lfoot -16.5975 -3.72513
ltoes -5.02081
513
root -8.88945 17.8972 4.81932 90.7084 -84.4699 -85.017
lowerback 3.99892 2.38014 -1.10573
upperback 3.31109 3.01532 -4.7574
thorax 1.37075 1.47944 -4.37047
lowerneck -9.33629 13.9696 0.970796
upperneck 34.0373 21.0063 -6.15483
head 14.0142 8.01523 0.398687
rclavicle 4.21423e-014 -4.92986e-014
rhumerus -31.3989 -7.87413 -78.6522
rradius 30.7002
rwrist 13.8216
rhand -8.42345 -19.8043
rfingers 7.12502
rthumb 17.5014 -49.0365
lclavicle 4.21423e-014 -4.92986e-014
lhumerus -24.0704 4.86182 76.0552
lradius 45.6302
lwrist -22.3651
lhand -15.3372 16.4366
lfingers 7.12502
lthumb 10.8395 46.1369
rfemur -32.7108 -7.60475 20.3866
rtibia 28.1089
rfoot -6.62303 -16.6179
rtoes 2.68394
lfemur -9.00504 -8.76636 -9.47488
ltibia 22.6061
lfoot -16.7594 -3.7588
ltoes -5.18526
514
root -8.9989 17.8915 4.80528 89.6524 -84.585 -83.8563
lowerback 4.00173 2.32442 -1.1295
upperback 3.33202 2.94212 -4.70985
thorax 1.38173 1.44236 -4.30535
lowerneck -9.35094 13.948 0.91864
upperneck 33.9429 20.996 -6.20538
head 13.9754 8.0075 0.385116
rclavicle 2.8625e-014 3.65764e-014
rhumerus -31.447 -7.85936 -78.5814
rradius 30.6568
rwrist 13.8174
rhand -8.42571 -19.8283
rfingers 7.12502
rthumb 17.4992 -49.0607
lclavicle 2.8625e-014 3.65764e-014
lhumerus -24.3367 4.9422 76.2175
lradius 45.4344
lwrist -22.7051
lhand -15.3568 16.3992
lfingers 7.12502
lthumb 10.8206 46.1004
rfemur -32.7757 -7.32128 20.0615
rtibia 26.8482
rfoot -6.7094 -16.6851
rtoes 2.43463
lfemur -8.59744 -8.78749 -9.61774
ltibia 22.3776
lfoot -16.9231 -3.79438
ltoes -5.3728
515
root -9.10949 17.8849 4.78999 88.4392 -84.6967 -82.5431
lowerback 4.00534 2.27074 -1.14764
upperback 3.35115 2.87178 -4.66126
thorax 1.391 1.40684 -4.24247
lowerneck -9.36327 13.9253 0.867954
upperneck 33.8511 20.9842 -6.25631
head 13.9375 7.9992 0.370887
rclavicle -1.66979e-014 -7.79236e-014
rhumerus -31.4979 -7.86273 -78.4967
rradius 30.5914
rwrist 13.8256
rhand -8.43174 -19.8588
rfingers 7.12502
rthumb 17.4934 -49.0917
lclavicle -1.66979e-014 -7.79236e-014
lhumerus -24.5989 5.06447 76.3668
lradius 45.1753
lwrist -23.0648
lhand -15.4018 16.3786
lfingers 7.12502
lthumb 10.7773 46.0821
rfemur -32.8243 -7.0267 19.7252
rtibia 25.6733
rfoot -6.76738 -16.7844
rtoes 2.20451
lfemur -8.19859 -8.81319 -9.75621
ltibia 22.1774
lfoot -17.087 -3.83206
ltoes -5.58977
516
root -9.22124 17.8773 4.77341 87.0719 -84.8045 -81.0807
lowerback 4.00736 2.21913 -1.16129
upperback 3.37036 2.80446 -4.61141
thorax 1.40178 1.37294 -4.18084
lowerneck -9.37473 13.9019 0.818497
upperneck 33.7607 20.9721 -6.30958
head 13.9007 7.99059 0.355613
rclavicle 1.59028e-014 -2.38542e-014
rhumerus -31.5483 -7.8838 -78.3989
rradius 30.5042
rwrist 13.8465
rhand -8.44236 -19.8953
rfingers 7.12502
rthumb 17.4832 -49.1292
lclavicle 1.59028e-014 -2.38542e-014
lhumerus -24.8543 5.23125 76.5022
lradius 44.853
lwrist -23.4444
lhand -15.4633 16.3747
lfingers 7.12502
lthumb 10.7179 46.0813
rfemur -32.8583 -6.72159 19.3793
rtibia 24.5872
rfoot -6.79642 -16.914
rtoes 1.989
lfemur -7.80853 -8.84441 -9.89048
ltibia 22.0068
lfoot -17.2495 -3.87162
ltoes -5.83625
517
root -9.3342 17.869 4.75551 85.5647 -84.9047 -79.4833
lowerback 4.00901 2.1698 -1.16769
upperback 3.38838 2.74047 -4.55994
thorax 1.41217 1.34088 -4.1217
lowerneck -9.38537 13.8778 0.771171
upperneck 33.6739 20.9598 -6.36443
head 13.8659 7.98166 0.33949
rclavicle -7.95139e-015 1.59028e-015
rhumerus -31.5994 -7.92252 -78.289
rradius 30.3949
rwrist 13.8799
rhand -8.45607 -19.9382
rfingers 7.12502
rthumb 17.47 -49.1732
lclavicle -7.95139e-015 1.59028e-015
lhumerus -25.1033 5.44303 76.6217
lradius 44.4671
lwrist -23.8411
lhand -15.5459 16.3811
lfingers 7.12502
lthumb 10.6382 46.0918
rfemur -32.8791 -6.40616 19.0295
rtibia 23.5915
rfoot -6.79879 -17.0672
rtoes 1.78598
lfemur -7.42738 -8.88136 -10.0161
ltibia 21.8661
lfoot -17.4094 -3.91311
ltoes -6.11004
518
root -9.4484 17.8601 4.73627 83.9405 -84.9964 -77.7736
lowerback 4.00988 2.12329 -1.16674
upperback 3.40502 2.68051 -4.50724
thorax 1.42225 1.31101 -4.06554
lowerneck -9.39469 13.8533 0.725833
upperneck 33.5906 20.947 -6.41944
head 13.8329 7.97249 0.322977
rclavicle 1.59028e-015 9.54166e-015
rhumerus -31.6516 -7.97908 -78.1682
rradius 30.2653
rwrist 13.9258
rhand -8.47253 -19.9866
rfingers 7.12502
rthumb 17.4541 -49.223
lclavicle 1.59028e-015 9.54166e-015
lhumerus -25.3486 5.70034 76.723
lradius 44.0226
lwrist -24.2548
lhand -15.638 16.4059
lfingers 7.12502
lthumb 10.5493 46.1211
rfemur -32.8888 -6.08335 18.6798
rtibia 22.6895
rfoot -6.77412 -17.2352
rtoes 1.5899
lfemur -7.05521 -8.92266 -10.1325
ltibia 21.7559
lfoot -17.5649 -3.95619
ltoes -6.41712
519
root -9.5639 17.8507 4.71568 82.2076 -85.0781 -75.9604
lowerback 4.00981 2.07969 -1.15793
upperback 3.42043 2.62472 -4.45337
thorax 1.43227 1.28342 -4.01271
lowerneck -9.40297 13.8284 0.682744
upperneck 33.5108 20.9334 -6.47406
head 13.8014 7.96308 0.306211
rclavicle -5.56597e-015 6.67916e-014
rhumerus -31.7044 -8.05234 -78.0378
rradius 30.1156
rwrist 13.9834
rhand -8.49047 -20.0407
rfingers 7.12502
rthumb 17.4369 -49.2787
lclavicle -5.56597e-015 6.67916e-014
lhumerus -25.5935 5.99988 76.8038
lradius 43.5245
lwrist -24.6781
lhand -15.743 16.4474
lfingers 7.12502
lthumb 10.4481 46.1678
rfemur -32.8888 -5.75759 18.3345
rtibia 21.8838
rfoot -6.7252 -17.4101
rtoes 1.41696
lfemur -6.69158 -8.96856 -10.2384
ltibia 21.6763
lfoot -17.7137 -4.0026
ltoes -6.75651
520
root -9.6807 17.8409 4.69366 80.3901 -85.1491 -74.0668
lowerback 4.00824 2.0389 -1.14217
upperback 3.43439 2.57297 -4.39804
thorax 1.44222 1.25802 -3.96234
lowerneck -9.4109 13.8035 0.641811
upperneck 33.4332 20.9201 -6.5294
head 13.7713 7.95382 0.289018
rclavicle -2.78299e-015 -4.45278e-014
rhumerus -31.7569 -8.14014 -77.8994
rradius 29.9476
rwrist 14.0516
rhand -8.51028 -20.099
rfingers 7.12502
rthumb 17.4178 -49.3386
lclavicle -2.78299e-015 -4.45278e-014
lhumerus -25.8361 6.34531 76.8631
lradius 42.9732
lwrist -25.111
lhand -15.8501 16.5142
lfingers 7.12502
lthumb 10.3448 46.2397
rfemur -32.8829 -5.43324 17.9996
rtibia 21.1784
rfoot -6.65135 -17.5836
rtoes 1.274
lfemur -6.33872 -9.01728 -10.332
ltibia 21.6289
lfoot -17.8541 -4.0525
ltoes -7.13485
521
root -9.79885 17.831 4.6702 78.5117 -85.2091 -72.117
lowerback 4.00568 2.00167 -1.1193
upperback 3.44661 2.5262 -4.3419
thorax 1.45159 1.23527 -3.91529
lowerneck -9.41715 13.7786 0.604407
upperneck 33.3584 20.9067 -6.58569
head 13.7427 7.94463 0.270945
rclavicle -2.82274e-014 -1.43125e-014
rhumerus -31.8105 -8.24567 -77.7532
rradius 29.7624
rwrist 14.1332
rhand -8.52869 -20.1625
rfingers 7.12502
rthumb 17.4001 -49.4037
lclavicle -2.82274e-014 -1.43125e-014
lhumerus -26.0801 6.73428 76.8986
lradius 42.3739
lwrist -25.5501
lhand -15.9573 16.6052
lfingers 7.12502
lthumb 10.2413 46.3359
rfemur -32.8716 -5.11543 17.6793
rtibia 20.5738
rfoot -6.5586 -17.748
rtoes 1.16349
lfemur -5.99565 -9.06924 -10.4136
ltibia 21.6143
lfoot -17.9844 -4.10538
ltoes -7.55135
522
root -9.91837 17.821 4.64528 76.5994 -85.2574 -70.1378
lowerback 4.00136 1.96785 -1.08913
upperback 3.45724 2.48425 -4.28473
thorax 1.46092 1.21512 -3.87137
lowerneck -9.42264 13.7539 0.569187
upperneck 33.2859 20.8933 -6.64175
head 13.7154 7.93558 0.252693
rclavicle 3.53837e-014 -3.33958e-014
rhumerus -31.8638 -8.36516 -77.6013
rradius 29.5615
rwrist 14.2258
rhand -8.54715 -20.2281
rfingers 7.12502
rthumb 17.3823 -49.4709
lclavicle 3.53837e-014 -3.33958e-014
lhumerus -26.3262 7.16724 76.9084
lradius 41.7293
lwrist -25.9913
lhand -16.0744 16.7037
lfingers 7.12502
lthumb 10.1284 46.4399
rfemur -32.8568 -4.80735 17.3787
rtibia 20.0706
rfoot -6.45036 -17.9011
rtoes 1.08467
lfemur -5.66431 -9.1237 -10.4809
ltibia 21.634
lfoot -18.1028 -4.16298
ltoes -8.00821
523
root -10.0393 17.8112 4.61887 74.6709 -85.294 -68.1469
lowerback 3.99608 1.93745 -1.05224
upperback 3.46619 2.44706 -4.22687
thorax 1.46964 1.1975 -3.83065
lowerneck -9.42892 13.7292 0.536318
upperneck 33.2172 20.8798 -6.69635
head 13.69 7.92657 0.234807
rclavicle 5.1684e-015 -3.18055e-014
rhumerus -31.9171 -8.49775 -77.445
rradius 29.3473
rwrist 14.3279
rhand -8.5631 -20.2961
rfingers 7.12502
rthumb 17.367 -49.5402
lclavicle 5.1684e-015 -3.18055e-014
lhumerus -26.5767 7.64409 76.8901
lradius 41.0441
lwrist -26.4329
lhand -16.1915 16.8139
lfingers 7.12502
lthumb 10.0154 46.5556
rfemur -32.8386 -4.51347 17.1014
rtibia 19.667
rfoot -6.3283 -18.04
rtoes 1.03951
lfemur -5.34469 -9.18148 -10.5344
ltibia 21.6881
lfoot -18.2056 -4.2254
ltoes -8.51308
